<?xml version="1.0" encoding="utf-8"?>
<!-- Generator: Adobe Illustrator 16.0.0, SVG Export Plug-In . SVG Version: 6.00 Build 0)  -->
<!DOCTYPE svg PUBLIC "-//W3C//DTD SVG 1.1//EN" "http://www.w3.org/Graphics/SVG/1.1/DTD/svg11.dtd">
<svg version="1.1" id="Layer_1" xmlns="http://www.w3.org/2000/svg" xmlns:xlink="http://www.w3.org/1999/xlink" x="0px" y="0px"
	 width="1045px" height="768px" viewBox="0 0 1045 768" enable-background="new 0 0 1045 768" xml:space="preserve">
<g>
	<g>
		<defs>
			<rect id="SVGID_1_" width="1045" height="768"/>
		</defs>
		<clipPath id="SVGID_2_">
			<use xlink:href="#SVGID_1_"  overflow="visible"/>
		</clipPath>
		<rect clip-path="url(#SVGID_2_)" fill="#F8991F" width="1045" height="768"/>
		<g clip-path="url(#SVGID_2_)">
			<defs>
				<rect id="SVGID_3_" width="1045" height="768"/>
			</defs>
			<clipPath id="SVGID_4_">
				<use xlink:href="#SVGID_3_"  overflow="visible"/>
			</clipPath>
			<path clip-path="url(#SVGID_4_)" fill="#961B1F" d="M57.451,902.166c0,0,90.797-148.282,123.361-209.533
				c32.561-61.253,80.301-185.117,66.279-242.807c-14.01-57.688-24.211-296.165-105.516-269.59
				C60.273,206.813-18.82,297.361-4.797,355.05c14.014,57.688-3.619,283.702,36.016,289.895
				c39.652,6.178,84.215,41.543,110.559-5.781c26.326-47.338,71.254-187.885,47.531-226.779
				C165.596,373.5,163.33,283.797,130.67,293.597c-32.658,9.801-98.486,128.131-88.693,160.791
				c9.807,32.658,19.75,142.515,39.9,134.824c20.145-7.689,56.082-125.271,49.102-141.249c-6.99-15.979-29.203,4.925-38.193,27.889
				c-9.006,22.955-45.83,33.47-19.557-39.599c26.291-73.058,38.055-105.063,54.781-82.155
				c16.729,22.921,57.932,114.629,26.729,158.479c-31.205,43.867-24.824,107.139-58.195,112.767
				c-33.363,5.627-61.346-84.019-61.4-109.749c-0.047-25.735-32.258-140.394-0.342-180.087
				c31.896-39.692,73.512-98.194,104.814-90.594c31.313,7.582,106.678,149.286,75.527,218.887
				c-31.158,69.586-21.916,175.256-46.883,205.207c-24.98,29.955-128.293,180.347-142.162,199.843
				c-13.875,19.495-47.74,123.864-16.539,79.997C40.771,904.979,57.451,902.166,57.451,902.166"/>
			<path clip-path="url(#SVGID_4_)" fill="#961B1F" d="M41.859,126.278c0,0-48.242,38.156-37.277,45.969
				c10.963,7.798,9.965,33.707,26.645,24.462c16.664-9.257,60.047-50.886,71.336-53.851c11.297-2.982,66.563-12.304,78.725-10.076
				c12.17,2.238,38.371-26.844,2.195-37.885c-36.178-11.067-90.549,9.903-99.234,15.647
				C75.572,116.299,41.859,126.278,41.859,126.278"/>
			<path clip-path="url(#SVGID_4_)" fill="#961B1F" d="M4.391,75.774c0,0-28.602,40.199-8.104,34.602
				c20.504-5.596,57.307-28.975,69.645-32.118c12.34-3.157,61.848-21.155,70.012-23.608c8.166-2.439,34.557-24.047,6.039-27.821
				c-28.531-3.774-74.516,35.079-88.236,36.317C40,64.399,10.65,74.718,4.391,75.774"/>
			<path clip-path="url(#SVGID_4_)" fill="#961B1F" d="M1.682,21.534C-9.059,23.346-25.922,42.271-12.887,43.3
				c13.049,1.016,59.773-20.818,67.59-25.339c7.795-4.544,56.631-13.845,58.701-20.64c2.074-6.767-15.494-15.604-28.697-11.237
				C71.504-9.537,15.23,19.249,1.682,21.534"/>
			<path clip-path="url(#SVGID_4_)" fill="#961B1F" d="M10.795,685.918c-18.898,9.493-19.564,42.968-18.654,67.478
				c0.92,24.507-12.881,76.165,16.109,57.335c28.988-18.83,90.957-71.101,86.057-87.43
				C89.412,706.971,49.348,666.554,10.795,685.918"/>
			<path clip-path="url(#SVGID_4_)" fill="#961B1F" d="M726.271-131.276c0,0,136.064,108.254,187.623,154.66
				c51.557,46.411,138.807,146.456,145.375,205.46c6.58,59,78.611,286.567-6.879,289.422
				c-85.488,2.854-190.795-55.157-197.361-114.16c-6.576-59-100.496-265.331-65.375-284.716
				c35.145-19.375,64.912-67.855,105.861-32.404c40.938,35.468,131.252,152.151,122.275,196.817
				c-8.975,44.649,19.598,129.713-14.445,131.683c-34.039,1.967-136.391-86.688-138.365-120.728
				c-1.963-34.041-30.217-140.669-8.652-140.338c21.561,0.329,95.568,98.512,94.477,115.915
				c-1.096,17.405-29.123,5.367-45.428-13.133c-16.32-18.487-54.52-15.765-4.824,43.899c49.705,59.647,71.713,85.693,79.59,58.445
				c7.873-27.262,15.201-127.533-29.125-158.057c-44.334-30.538-59.994-92.172-93.275-86.038
				c-33.273,6.13-28.887,99.938-20.131,124.134c8.766,24.197,17.738,142.955,61.313,169.328
				c43.555,26.379,102.678,67.106,129.492,49.251c26.822-17.84,49.141-176.78-3.949-231.517
				c-53.09-54.719-80.572-157.171-114.281-176.77c-33.725-19.596-182.268-125.55-201.973-139.12
				c-19.709-13.57-87.248-100.046-42.92-69.506C709.635-128.211,726.271-131.276,726.271-131.276"/>
			<path clip-path="url(#SVGID_4_)" fill="#961B1F" d="M962.156,772.508c0.602-39.884,90.74-21.012,87.012,5.473
				c-3.705,26.492-26.699,65.132-42.246,50.796C991.373,814.439,961.834,794.072,962.156,772.508"/>
			<path clip-path="url(#SVGID_4_)" fill="#961B1F" d="M977.162,603.093c0,0-58.387-19.341-50.758-30.435
				c7.633-11.079-2.172-35.082,16.664-32.103c18.824,2.994,73.836,27.262,85.457,26.184c11.637-1.064,66.754-11.22,77.42-17.475
				c10.668-6.271,45.24,12.091,15.027,34.845c-30.205,22.782-88.469,21.684-98.596,19.26
				C1012.256,600.934,977.162,603.093,977.162,603.093"/>
			<path clip-path="url(#SVGID_4_)" fill="#961B1F" d="M959.242,663.37c0,0-40.633-27.981-19.457-29.737
				c21.182-1.76,63.762,7.61,76.432,6.342c12.674-1.255,65.354-1.29,73.863-1.778c8.508-0.502,40.699,10.769,15.195,24.075
				c-25.516,13.311-82.021-7.458-95.338-3.925C996.596,661.872,965.484,662.221,959.242,663.37"/>
			<path clip-path="url(#SVGID_4_)" fill="#961B1F" d="M975.26,715.264c-10.711,1.974-33.035-10.037-21.137-15.467
				c11.912-5.42,63.287-0.895,72.178,0.679c8.881,1.6,57.951-6.374,62.221-0.698c4.266,5.647-9.217,19.965-23.117,20.381
				C1051.5,720.563,988.771,712.773,975.26,715.264"/>
			<path clip-path="url(#SVGID_4_)" fill="#961B1F" d="M756.441,87.882c-21.006-2.453-33.088-33.678-40.621-57.019
				c-7.525-23.342-38.17-67.158-4.486-59.386c33.684,7.77,109.799,35.678,110.783,52.697
				C823.107,41.193,799.293,92.882,756.441,87.882"/>
		</g>
		<polygon clip-path="url(#SVGID_2_)" fill="#F8ED47" points="63.715,73.124 111.98,63.258 124.08,100.228 102.186,111.504 
			95.863,88.297 72.719,99.672 114.279,148.476 79.092,190.484 38.348,178.389 41.398,143.742 55.107,142.623 66.68,170.148 
			82.012,153.476 45.635,107.81 		"/>
		<polygon clip-path="url(#SVGID_2_)" fill="#F8ED47" points="211.041,90.733 224.078,144.233 167.432,183.258 134.613,156.278 
			131.549,101.964 191.262,50.836 207.754,76.771 156.875,107.017 168.26,153.532 195.992,134.663 186.451,98.672 		"/>
		<polygon clip-path="url(#SVGID_2_)" fill="#F8ED47" points="227.834,0.001 237.377,169.185 253.773,171.406 259.643,0.001 		"/>
		<polygon clip-path="url(#SVGID_2_)" fill="#F8ED47" points="298.123,53.79 346.395,43.92 358.494,80.894 336.592,92.167 
			330.277,68.961 307.135,80.337 348.693,129.138 313.508,171.15 272.762,159.052 275.813,124.405 289.523,123.291 301.09,150.812 
			316.428,134.142 280.049,88.478 		"/>
		<polygon clip-path="url(#SVGID_2_)" fill="#F8ED47" points="365.201,0.001 374.1,157.904 386.963,163.972 419.91,104.351 
			441,145.331 471.154,125.083 462.545,105.617 452.711,108.794 433.465,78.337 451.611,44.83 425.82,31.515 394.539,120.653 
			396.357,0.001 		"/>
		<polygon clip-path="url(#SVGID_2_)" fill="#F8ED47" points="495.385,155.134 472.467,126.159 470.271,87.2 531.613,20.511 
			547.367,33.461 496.26,104.052 497.393,124.126 546.676,65.544 563.406,73.668 555.432,109.907 566.518,106.628 575.191,127.271 
			537.158,141.05 535.492,111.529 		"/>
		<path clip-path="url(#SVGID_2_)" fill="#F8ED47" d="M78.396,247.488l-4.826-25.504l40.541-8.125l2.125,26.051L78.396,247.488z
			 M117.156,259.576L123,386.792l-18.293-0.311L82.016,266.617L117.156,259.576z"/>
		<polygon clip-path="url(#SVGID_2_)" fill="#F8ED47" points="231.783,309.401 247.658,222.84 278.449,229.903 291.924,315.881 
			305.197,311.895 312.869,330.213 271.797,350.352 257.314,273.84 235.402,365.588 212.332,362.271 197.367,283.209 
			178.162,374.409 163.924,373.293 132.5,259.146 156.104,250.446 173.332,311.85 193.361,232.396 218.99,241.817 		"/>
		<polygon clip-path="url(#SVGID_2_)" fill="#F8ED47" points="297.658,249.877 314.268,241.253 309.195,214.479 344.332,207.438 
			346.119,224.283 394.336,197.418 418.762,274.582 372.908,328.768 362.533,310.996 384.539,264.236 372.615,230.887 
			348.246,250.329 361.861,403.78 345.16,404.475 320.059,271.857 310.213,279.127 		"/>
		<polygon clip-path="url(#SVGID_2_)" fill="#F8ED47" points="494.193,184.02 498.541,206.977 509.594,206.083 513.213,225.212 
			482.324,247.286 476.047,214.128 467.941,215.754 471.18,314.375 452.258,318.163 433.914,221.25 415.859,222.223 
			411.756,200.542 		"/>
		<polygon clip-path="url(#SVGID_2_)" fill="#F8ED47" points="600.238,195.865 622.148,252.352 565.635,302.063 525.811,276.951 
			514.713,218.295 572.867,155.021 594.637,181.104 543.186,220.533 562.303,269.64 590.008,245.56 574.414,207.654 		"/>
		<polygon clip-path="url(#SVGID_2_)" fill="#F8ED47" points="680.867,19.47 673.482,235.006 653.803,232.338 641.982,22.645 		"/>
		<path clip-path="url(#SVGID_2_)" fill="#F8ED47" d="M704.996,74.439l-1.602-28.338l44.865-3.658l-1.396,28.584L704.996,74.439z
			 M745.078,92.521l-11.695,139.025l-19.682-2.67l-7.51-133.186L745.078,92.521z"/>
		<polygon clip-path="url(#SVGID_2_)" fill="#F8ED47" points="797.262,192.174 838.234,146.128 864.375,156.806 851.488,274.574 
			779.082,296.137 773.721,280.916 826.039,249.605 827.248,191.147 794.93,230.797 763.184,200.646 772.566,127.29 838.486,70.671 
			869.992,96.57 871.748,127.742 846.807,138.315 845.207,109.979 799.189,146.47 		"/>
		<polygon clip-path="url(#SVGID_2_)" fill="#F8ED47" points="912.994,219.743 885.492,184.975 882.857,138.222 956.469,58.202 
			975.371,73.744 914.043,158.45 915.398,182.535 974.537,112.241 994.621,121.99 985.047,165.47 998.348,161.538 1008.758,186.311 
			963.117,202.84 961.123,167.422 		"/>
		<polygon clip-path="url(#SVGID_2_)" fill="#F8ED47" points="47.51,28.423 66.555,52.685 96.453,47.456 111.053,19.056 
			85.357,20.453 81.979,38.869 72.443,39.647 67.721,21.19 		"/>
		<path clip-path="url(#SVGID_2_)" fill="#F8ED47" d="M0,220.586v19.223l29.021,6.293l21.176,118.268L49.27,216.563L0,220.586z
			 M0,165.034v32.608l6.139-52.626L0,165.034z"/>
		<polygon clip-path="url(#SVGID_2_)" fill="#F8ED47" points="571.5,332.467 659.906,262.61 784.287,250.316 672.615,276.512 		"/>
		<polygon clip-path="url(#SVGID_2_)" fill="#F8ED47" points="108.664,408.42 225.602,397.996 320.629,370.277 225.188,420 		"/>
		<polygon clip-path="url(#SVGID_2_)" fill="#F8ED47" points="782.076,72.619 847.705,31.231 887.592,78.191 960.84,26.141 
			1019.555,56.994 963.123,3.231 888.021,55.307 846.221,11.894 		"/>
		<polygon clip-path="url(#SVGID_2_)" fill="#F8ED47" points="600.441,0.001 590.131,31.298 543.053,0.001 537.023,0.001 
			598.705,68.136 618.496,0.99 643.73,0.001 		"/>
		<polygon clip-path="url(#SVGID_2_)" fill="#F8ED47" points="116.691,0.001 133.164,0.566 143.752,61.421 208.148,20.345 
			162.266,33.739 158.492,0.001 		"/>
		<path clip-path="url(#SVGID_2_)" fill="#F8ED47" d="M0,674.637v20.507l30.666-5.022l1.697,47.992L0,738.684v24.653L32.752,768
			H65.85l7.186-104.397L0,674.637z M0,622.691l7.393,22.995l143.416-36.246L105.416,768h64.77l20.342-192.415l-174.266,26.83
			L0,518.98V622.691z M0,475.345v36.235l121.744-22.942l-5.955,52.31l-41.777,9.034l-1.352-20.875l-20.877,1.353l2.703,41.748
			l73.344-12.217l21.613-106.382L0,475.345z"/>
		<polygon clip-path="url(#SVGID_2_)" fill="#F8ED47" points="46.088,435.441 0,417.237 0,452.92 48.063,457.642 55.49,459.647 
			59.619,453.15 95.693,412.54 74.064,391.381 		"/>
		<g clip-path="url(#SVGID_2_)">
			<defs>
				<rect id="SVGID_5_" width="1045" height="768"/>
			</defs>
			<clipPath id="SVGID_6_">
				<use xlink:href="#SVGID_5_"  overflow="visible"/>
			</clipPath>
			<path clip-path="url(#SVGID_6_)" fill="#F8ED47" d="M267.789,871.633c18.34-1.188,27.814-85.582,21.156-188.508
				c-6.656-102.924-26.926-185.398-45.264-184.213c-18.342,1.186-27.818,85.585-21.16,188.511
				C229.18,790.344,249.451,872.82,267.789,871.633"/>
			<path clip-path="url(#SVGID_6_)" fill="#F8ED47" d="M244.068,504.896c23.947-1.55,42.424-17.264,41.271-35.1
				c-1.158-17.833-21.502-31.032-45.449-29.486c-23.947,1.549-42.426,17.263-41.275,35.098
				C199.768,493.242,220.123,506.445,244.068,504.896"/>
		</g>
		<polygon clip-path="url(#SVGID_2_)" fill="#F8ED47" points="790.365,578.682 739.627,576.025 740.516,602.375 787.973,605.036 		
			"/>
		<polygon clip-path="url(#SVGID_2_)" fill="#F8ED47" points="807.438,371.015 729.373,366.854 727.396,336.274 809.666,342.211 		
			"/>
		<polygon clip-path="url(#SVGID_2_)" fill="#F8ED47" points="805.777,383.406 729.984,379.508 731.105,406.254 803.648,410.566 		
			"/>
		<polygon clip-path="url(#SVGID_2_)" fill="#F8ED47" points="802.602,422.919 731.842,417.671 732.719,443.814 800.391,448.856 		
			"/>
		<polygon clip-path="url(#SVGID_2_)" fill="#F8ED47" points="799.592,461.803 733.615,457.681 734.539,484.645 797.041,488.787 		
			"/>
		<polygon clip-path="url(#SVGID_2_)" fill="#F8ED47" points="796.201,501.125 736.092,496.003 737.057,523.576 794.611,527.228 		
			"/>
		<polygon clip-path="url(#SVGID_2_)" fill="#F8ED47" points="792.914,539.005 737.096,536.884 738.758,562.569 791.586,565.908 		
			"/>
		<polygon clip-path="url(#SVGID_2_)" fill="#F8ED47" points="787.15,617.577 741.291,614.403 742.213,641.367 784.939,643.515 		
			"/>
		<polygon clip-path="url(#SVGID_2_)" fill="#F8ED47" points="783.939,653.402 743.879,654.357 745.359,702.577 786.768,701.262 		
			"/>
		<polygon clip-path="url(#SVGID_2_)" fill="#F8ED47" points="795.596,653.268 799.826,700.689 822.947,699.47 820.152,649.832 		
			"/>
		<polygon clip-path="url(#SVGID_2_)" fill="#F8ED47" points="831.361,649.109 834.943,699.241 859.43,697.924 854.93,646.355 		"/>
		<polygon clip-path="url(#SVGID_2_)" fill="#F8ED47" points="866.104,645.022 870.352,698.041 895.629,696.404 888.477,642.755 		
			"/>
		<polygon clip-path="url(#SVGID_2_)" fill="#F8ED47" points="900.68,641.557 908.982,696.089 948.434,694.083 923.053,639.29 		"/>
		<g clip-path="url(#SVGID_2_)">
			<defs>
				<rect id="SVGID_7_" width="1045" height="768"/>
			</defs>
			<clipPath id="SVGID_8_">
				<use xlink:href="#SVGID_7_"  overflow="visible"/>
			</clipPath>
			<path clip-path="url(#SVGID_8_)" fill="#F8ED47" d="M1044.445,570.736c-0.877,0.346-1.768,0.605-2.66,0.785
				c-7.264,1.458-14.748-2.444-17.559-9.578l-53.633-136.175l-63.145,131.433c-3.73,7.761-13.047,11.028-20.807,7.3
				s-11.029-13.042-7.301-20.804l94.084-195.825l79.814,202.645C1056.395,558.528,1052.457,567.581,1044.445,570.736
				 M1093.102,523.94l0.426,0.015L975.906,230L840.42,511.131c-9.156,13.528-11.295,25.27-11.648,35.663
				c-1.279,37.505,28.084,68.946,65.592,70.228c35.973,1.235,66.287-25.755,69.85-61.054c1.135,35.46,29.545,64.453,65.518,65.69
				c37.506,1.275,68.945-28.09,70.229-65.597C1100.352,544.546,1097.838,533.618,1093.102,523.94"/>
			<path clip-path="url(#SVGID_8_)" fill="#F8ED47" d="M225.58,473.285c-0.557-8.612,3.15-16.753,9.701-23.281
				c-13.5,3.357-23.068,13.165-22.357,24.102c0.705,10.935,11.453,19.428,25.275,21.02
				C230.867,489.494,226.137,481.899,225.58,473.285"/>
			<path clip-path="url(#SVGID_8_)" fill="#F8ED47" d="M256.178,532.152c-5.457,34.631-6.965,87.692-3.137,146.875
				c3.785,58.528,11.973,110.44,21.701,144.122c0,0-7.072-86.792-10.828-144.824C260.086,619.131,256.178,532.152,256.178,532.152"
				/>
		</g>
	</g>
</g>
</svg>
